<svg width="60" height="60" viewBox="0 0 60 60" fill="none" xmlns="http://www.w3.org/2000/svg">
<rect width="60" height="60" fill="black"/>
<path d="M29.4375 25.0125V20.4H24.7875V18.15H29.4375V13.5375H31.6875V18.15H36.2999V20.4H31.6875V25.0125H29.4375ZM22.867 45C22.1223 45 21.4875 44.7348 20.9625 44.2045C20.4375 43.6742 20.175 43.0367 20.175 42.292C20.175 41.5473 20.4401 40.9125 20.9704 40.3875C21.5007 39.8625 22.1382 39.6 22.8829 39.6C23.6276 39.6 24.2625 39.8651 24.7875 40.3954C25.3125 40.9258 25.575 41.5633 25.575 42.3079C25.575 43.0526 25.3098 43.6875 24.7795 44.2125C24.2492 44.7375 23.6117 45 22.867 45ZM38.017 45C37.2723 45 36.6374 44.7348 36.1124 44.2045C35.5875 43.6742 35.3249 43.0367 35.3249 42.292C35.3249 41.5473 35.5901 40.9125 36.1204 40.3875C36.6507 39.8625 37.2882 39.6 38.0329 39.6C38.7776 39.6 39.4124 39.8651 39.9375 40.3954C40.4625 40.9258 40.7249 41.5633 40.7249 42.3079C40.7249 43.0526 40.4598 43.6875 39.9295 44.2125C39.3992 44.7375 38.7617 45 38.017 45ZM22.875 37.2375C21.825 37.2375 21.0562 36.8125 20.5687 35.9625C20.0812 35.1125 20.0875 34.25 20.5875 33.375L22.875 29.2125L17.25 17.25H14.325V15H18.675L25.05 28.65H36L41.8499 18.15L43.7999 19.2L38.0625 29.5875C37.8284 30.0042 37.5199 30.3271 37.1369 30.5562C36.7539 30.7854 36.2999 30.9 35.775 30.9H24.525L22.2 34.9875H40.7249V37.2375H22.875Z" fill="white"/>
</svg>
